<svg xmlns:dc="http://purl.org/dc/elements/1.1/" xmlns:cc="http://creativecommons.org/ns#" xmlns:rdf="http://www.w3.org/1999/02/22-rdf-syntax-ns#" xmlns:svg="http://www.w3.org/2000/svg" xmlns="http://www.w3.org/2000/svg" xmlns:sodipodi="http://sodipodi.sourceforge.net/DTD/sodipodi-0.dtd" xmlns:inkscape="http://www.inkscape.org/namespaces/inkscape" version="1.1" x="0px" y="0px" viewBox="0 0 100 125"><g transform="translate(0,-952.36218)"><path style="text-indent:0;text-transform:none;direction:ltr;block-progression:tb;baseline-shift:baseline;color:#000000;enable-background:accumulate;" d="m 44,958.3622 c -2.7527,0 -5,2.24729 -5,5 l 0,5.8125 c -1.6066,0.53132 -3.1602,1.18762 -4.6563,1.9375 l -4.125,-4.125 c -1.9464,-1.94635 -5.1473,-1.94635 -7.0937,0 l -8.5,8.5 c -1.9463,1.94638 -1.9463,5.11612 0,7.0625 l 4.1563,4.15625 c -0.7537,1.50357 -1.436,3.04107 -1.9688,4.65625 l -5.8125,0 c -2.7526998,0 -4.9999998,2.24729 -4.9999998,4.99997 l 0,12.00003 c 0,2.7527 2.2473,5 4.9999998,5 l 5.8437,0 c 0.5295,1.5997 1.16,3.1662 1.9063,4.6562 l -4.125,4.125 c -1.9463,1.9464 -1.9463,5.1162 0,7.0625 l 8.5,8.5 c 1.9464,1.9464 5.1473,1.9464 7.0937,0 l 4.125,-4.125 c 1.4962,0.7499 3.0497,1.4062 4.6563,1.9375 l 0,5.8438 c 0,2.7527 2.2473,5 5,5 l 12,0 c 2.7527,0 5,-2.2473 5,-5 l 0,-5.8438 c 1.6066,-0.5313 3.1603,-1.1876 4.6563,-1.9375 l 4.125,4.125 c 1.9464,1.9464 5.1473,1.9464 7.0937,0 l 8.5,-8.5 c 1.9463,-1.9463 1.9463,-5.1161 0,-7.0625 l -4.125,-4.125 c 0.7463,-1.49 1.3768,-3.0565 1.9063,-4.6562 l 5.8437,0 c 2.7527,0 5,-2.2473 5,-5 l 0,-12.00003 c 0,-2.75268 -2.2473,-4.99997 -5,-4.99997 l -5.8125,0 c -0.5328,-1.61518 -1.2153,-3.15268 -1.9688,-4.65625 l 4.1563,-4.15625 c 1.9463,-1.94638 1.9463,-5.11612 0,-7.0625 l -8.5,-8.5 c -1.9464,-1.94635 -5.1473,-1.94635 -7.0937,0 l -4.125,4.125 C 64.16,970.36232 62.6066,969.70602 61,969.1747 l 0,-5.8125 c 0,-2.75271 -2.2473,-5 -5,-5 l -12,0 z m 0,2 12,0 c 1.6793,0 3,1.32069 3,3 l 0,6.5 c 0.01,0.42115 0.3145,0.81912 0.7187,0.9375 2.0019,0.61435 3.9029,1.4126 5.7188,2.375 0.3797,0.20165 0.8884,0.12132 1.1875,-0.1875 l 4.5937,-4.59375 c 1.1877,-1.18757 3.0312,-1.18757 4.2188,0 l 8.5,8.5 c 1.1875,1.18754 1.1875,3.06246 0,4.25 l -4.5938,4.59375 c -0.2989,0.30644 -0.3656,0.81416 -0.1562,1.1875 0.9624,1.8159 1.7295,3.71694 2.3438,5.71875 0.1212,0.4142 0.5371,0.72267 0.9687,0.71875 l 6.5,0 c 1.6793,0 3,1.32069 3,2.99997 l 0,12.00003 c 0,1.6793 -1.3207,3 -3,3 l -6.5,0 c -0.4239,-0.01 -0.8363,0.2847 -0.9687,0.6875 -0.6143,2.0018 -1.3814,3.9341 -2.3438,5.75 -0.1949,0.3667 -0.1289,0.8544 0.1562,1.1562 l 4.5938,4.5938 c 1.1875,1.1875 1.1875,3.0624 0,4.25 l -8.5,8.5 c -1.1876,1.1876 -3.0311,1.1876 -4.2188,0 l -4.5937,-4.5938 c -0.2991,-0.3088 -0.8078,-0.3891 -1.1875,-0.1875 -1.8159,0.9624 -3.7171,1.7607 -5.7188,2.375 -0.414,0.1214 -0.7226,0.5372 -0.7187,0.9688 l 0,6.5 c 0,1.6793 -1.3207,3 -3,3 l -12,0 c -1.6793,0 -3,-1.3207 -3,-3 l 0,-6.5 c 0,-0.4316 -0.3046,-0.8474 -0.7187,-0.9688 -2.0019,-0.6143 -3.9028,-1.4126 -5.7188,-2.375 -0.3797,-0.2016 -0.8884,-0.1213 -1.1875,0.1875 l -4.5937,4.5938 c -1.1877,1.1876 -3.0312,1.1876 -4.2188,0 l -8.5,-8.5 c -1.1875,-1.1876 -1.1875,-3.0625 0,-4.25 l 4.5938,-4.5938 c 0.2851,-0.3018 0.3511,-0.7895 0.1562,-1.1562 -0.9624,-1.8159 -1.7295,-3.7482 -2.3438,-5.75 -0.1323,-0.4028 -0.5448,-0.6955 -0.9687,-0.6875 l -6.5,0 c -1.6792998,0 -2.9999998,-1.3207 -2.9999998,-3 l 0,-12.00003 c 0,-1.67928 1.3207,-2.99997 2.9999998,-2.99997 l 6.5,0 c 0.4316,0.004 0.8475,-0.30455 0.9687,-0.71875 0.6143,-2.00181 1.3814,-3.90285 2.3438,-5.71875 0.2094,-0.37334 0.1427,-0.88106 -0.1562,-1.1875 l -4.5938,-4.59375 c -1.1875,-1.18754 -1.1875,-3.06246 0,-4.25 l 8.5,-8.5 c 1.1876,-1.18757 3.0311,-1.18757 4.2188,0 l 4.5937,4.59375 c 0.2991,0.30882 0.8078,0.38915 1.1875,0.1875 1.816,-0.96241 3.717,-1.76065 5.7188,-2.375 0.4041,-0.11838 0.7093,-0.51635 0.7187,-0.9375 l 0,-6.5 c 0,-1.67931 1.3207,-3 3,-3 z m 6,23 c -10.4815,0 -19,8.51834 -19,19 0,10.4815 8.5185,19 19,19 10.4816,0 19,-8.5185 19,-19 0,-10.48166 -8.5184,-19 -19,-19 z m 0,2 c 9.4007,0 17,7.59921 17,17 0,9.4006 -7.5993,17 -17,17 -9.4007,0 -17,-7.5994 -17,-17 0,-9.4008 7.5993,-17 17,-17 z" fill="#000000" fill-opacity="1" stroke="none" marker="none" visibility="visible" display="inline" overflow="visible"/></g><text x="0" y="115" fill="#000000" font-size="5px" font-weight="bold" font-family="'Helvetica Neue', Helvetica, Arial-Unicode, Arial, Sans-serif">Created by Aya Sofya</text><text x="0" y="120" fill="#000000" font-size="5px" font-weight="bold" font-family="'Helvetica Neue', Helvetica, Arial-Unicode, Arial, Sans-serif">from the Noun Project</text></svg>